# 3ds Max Wavefront OBJ Exporter v0.97b - (c)2007 guruware
# File Created: 20.10.2018 07:44:53

#
# object Ice_2
#

v  239.3672 7.6954 215.9851
v  241.0293 7.1686 216.9803
v  245.4640 8.2625 213.4797
v  238.3711 7.4455 215.6902
v  240.6964 8.2625 211.7293
v  238.3711 6.4266 215.6902
v  239.3672 6.4266 215.9851
v  243.4350 7.6954 217.6903
v  246.2103 7.6954 215.9153
v  241.0293 6.4266 216.9803
v  243.3711 7.6954 210.6902
v  242.0213 7.6954 209.6581
v  243.4350 6.4266 217.6903
v  246.2103 6.4266 215.9153
v  245.4640 6.4266 213.4797
v  243.3711 6.4266 210.6902
v  242.0213 6.4266 209.6581
v  238.3711 7.4088 210.6902
v  238.3711 6.4266 210.6902
v  236.7861 7.0433 213.5138
v  236.7861 6.4266 213.5138
# 21 vertices

vn 0.0683 0.9244 0.3753
vn -0.0291 0.9640 0.2644
vn 0.0068 0.9837 0.1798
vn -0.1982 0.9802 -0.0054
vn -0.1775 0.9605 -0.2145
vn 0.0113 0.9990 -0.0443
vn -0.1290 0.9864 -0.1016
vn -0.4007 0.0000 0.9162
vn -0.2839 0.0000 0.9589
vn -0.4020 0.0000 0.9157
vn -0.1394 0.9880 0.0659
vn 0.1213 0.9743 0.1897
vn -0.4035 0.0000 0.9150
vn -0.4016 0.0000 0.9158
vn 0.3126 0.8574 -0.4089
vn 0.0145 0.9574 -0.2886
vn -0.2831 0.0000 0.9591
vn 0.5388 0.0000 0.8424
vn 0.8897 0.0000 -0.4566
vn 0.9561 0.0000 -0.2930
vn 0.8913 0.0000 -0.4533
vn 0.7151 0.0000 -0.6991
vn 0.7103 0.0000 -0.7039
vn 0.6074 0.0000 -0.7944
vn -0.2721 0.0000 -0.9623
vn -0.8720 0.0000 -0.4895
vn -0.8084 0.0000 0.5887
vn -0.2735 0.9550 -0.1151
vn -0.2367 0.9715 -0.0071
# 29 vertex normals

vt 0.1550 0.0000 0.0000
vt 0.5243 0.0000 0.0000
vt 1.0000 0.6640 0.0000
vt 0.0000 0.0000 0.0000
vt 0.6185 0.7922 0.0000
vt 1.0000 0.0000 0.0000
vt 1.0000 0.2000 0.0000
vt 1.0000 1.0000 0.0000
vt 0.8480 1.0000 0.0000
vt 0.0000 1.0000 0.0000
vt 0.0000 0.5090 0.0000
# 11 texture coords

o Ice_2
g Ice_2
f 1/1/1 2/2/2 3/3/3 
f 4/4/4 1/1/5 3/3/6 
f 5/5/7 4/4/4 3/3/6 
f 1/1/8 4/4/9 6/4/9 
f 7/1/10 1/1/8 6/4/9 
f 8/6/11 9/7/12 3/3/3 
f 2/2/2 8/6/11 3/3/3 
f 2/2/13 1/1/8 7/1/10 
f 10/2/14 2/2/13 7/1/10 
f 3/3/6 11/8/15 12/9/16 
f 5/5/7 3/3/6 12/9/16 
f 8/6/17 2/2/13 10/2/14 
f 13/6/17 8/6/17 10/2/14 
f 9/7/18 8/6/18 13/6/18 
f 14/7/18 9/7/18 13/6/18 
f 3/3/19 9/7/20 14/7/20 
f 15/3/21 3/3/19 14/7/20 
f 11/8/22 3/3/19 15/3/21 
f 16/8/23 11/8/22 15/3/21 
f 12/9/24 11/8/22 16/8/23 
f 17/9/24 12/9/24 16/8/23 
f 18/10/25 12/9/25 17/9/25 
f 19/10/25 18/10/25 17/9/25 
f 20/11/26 18/10/26 19/10/26 
f 21/11/26 20/11/26 19/10/26 
f 4/4/27 20/11/27 21/11/27 
f 6/4/27 4/4/27 21/11/27 
f 5/5/7 12/9/16 18/10/28 
f 18/10/28 20/11/29 4/4/4 
f 5/5/7 18/10/28 4/4/4 
# 30 faces

