# 3ds Max Wavefront OBJ Exporter v0.97b - (c)2007 guruware
# File Created: 20.10.2018 07:45:21

#
# object Ice_4
#

v  249.9632 7.0497 226.1821
v  251.2973 6.9911 226.5492
v  255.1938 7.0922 224.8695
v  248.6761 7.2425 226.4269
v  250.4937 7.0562 223.8687
v  248.6761 6.3177 226.4269
v  249.4547 6.3177 226.6173
v  253.1777 6.7912 226.4100
v  253.9260 6.7912 226.2562
v  251.2973 6.3177 226.5492
v  254.2987 6.8854 222.8857
v  251.5293 7.4693 222.8315
v  253.1777 6.3177 226.4100
v  253.9260 6.3177 226.6370
v  255.1938 6.3177 224.8695
v  254.2987 6.3177 222.8857
v  251.5293 6.3177 222.5310
v  248.6761 7.2092 223.1976
v  248.6761 6.3177 223.1976
v  247.4371 6.8775 225.0212
v  247.4371 6.3177 225.0212
# 21 vertices

vn 0.0166 0.9950 0.0984
vn 0.0304 0.9910 0.1302
vn 0.0747 0.9642 0.2545
vn 0.1911 0.0298 0.9811
vn 0.2205 0.2895 0.9314
vn 0.2253 0.3498 0.9093
vn -0.0050 0.9911 0.1327
vn -0.0694 0.9971 -0.0304
vn -0.0264 0.9958 0.0880
vn 0.1868 0.0000 0.9824
vn -0.1902 0.5960 0.7802
vn -0.1892 0.5956 0.7807
vn -0.1907 0.5962 0.7799
vn 0.1134 0.9366 0.3315
vn 0.0530 0.9647 0.2579
vn -0.1887 0.5954 0.7809
vn 0.0554 0.0000 0.9985
vn 0.0571 0.0000 0.9984
vn 0.0369 0.0000 0.9993
vn 0.2060 0.9593 -0.1930
vn 0.1358 0.0000 0.9907
vn 0.1241 0.0000 0.9923
vn 0.2013 0.0000 0.9795
vn -0.2300 0.6099 0.7584
vn 0.5754 0.5126 0.6373
vn 0.8126 0.0000 0.5829
vn 0.9115 0.0000 -0.4113
vn -0.0244 0.2365 -0.9713
vn 0.0196 0.0000 -0.9998
vn 0.0465 0.0649 -0.9968
vn -0.0188 0.2291 -0.9732
vn -0.2093 0.0598 -0.9760
vn -0.2275 0.0000 -0.9738
vn -0.8271 0.0000 -0.5620
vn -0.7502 0.0000 0.6612
vn -0.0645 0.9476 0.3130
vn -0.0361 0.9972 0.0657
vn -0.2722 0.9622 -0.0099
# 38 vertex normals

vt 0.1550 0.0000 0.0000
vt 0.5243 0.0000 0.0000
vt 1.0000 0.6640 0.0000
vt 0.0000 0.0000 0.0000
vt 0.6185 0.7922 0.0000
vt 1.0000 0.0000 0.0000
vt 1.0000 0.2000 0.0000
vt 1.0000 1.0000 0.0000
vt 0.8480 1.0000 0.0000
vt 0.0000 1.0000 0.0000
vt 0.0000 0.5090 0.0000
# 11 texture coords

o Ice_4
g Ice_4
f 1/1/1 2/2/2 3/3/3 
f 4/4/4 1/1/5 3/3/6 
f 5/5/7 4/4/8 3/3/9 
f 1/1/5 4/4/4 6/4/10 
f 7/1/11 1/1/12 6/4/13 
f 8/6/14 9/7/15 3/3/3 
f 2/2/2 8/6/14 3/3/3 
f 2/2/16 1/1/12 7/1/11 
f 10/2/17 2/2/18 7/1/19 
f 3/3/20 11/8/20 12/9/20 
f 8/6/21 2/2/18 10/2/17 
f 13/6/22 8/6/21 10/2/17 
f 9/7/23 8/6/21 13/6/22 
f 14/7/24 9/7/24 13/6/24 
f 3/3/25 9/7/25 14/7/25 
f 15/3/26 3/3/26 14/7/26 
f 11/8/27 3/3/27 15/3/27 
f 16/8/27 11/8/27 15/3/27 
f 12/9/28 11/8/29 16/8/30 
f 17/9/31 12/9/28 16/8/30 
f 18/10/32 12/9/28 17/9/31 
f 19/10/33 18/10/32 17/9/31 
f 20/11/34 18/10/34 19/10/34 
f 21/11/34 20/11/34 19/10/34 
f 4/4/35 20/11/35 21/11/35 
f 6/4/35 4/4/35 21/11/35 
f 5/5/7 12/9/36 18/10/37 
f 18/10/37 20/11/38 4/4/8 
f 5/5/7 18/10/37 4/4/8 
f 12/9/36 5/5/7 3/3/9 
# 30 faces

