# 3ds Max Wavefront OBJ Exporter v0.97b - (c)2007 guruware
# File Created: 20.10.2018 07:45:35

#
# object Ice_5
#

v  245.2771 8.3486 231.5131
v  243.5435 7.8485 235.2913
v  248.3428 7.2404 236.8709
v  250.0585 8.0224 233.0896
v  243.6397 7.4607 236.9857
v  243.7497 7.2163 238.4480
v  243.6397 6.2886 236.9857
v  243.5178 6.2886 238.7202
v  250.4314 7.4863 231.7220
v  253.2363 7.2702 234.1374
v  250.8516 7.0081 229.7729
v  246.6379 7.1421 238.5415
v  246.6379 6.2886 238.5415
v  247.0308 7.7482 228.7937
v  249.8221 6.8887 239.6790
v  249.8221 6.2886 239.9467
v  251.8291 6.8887 237.7732
v  251.8291 6.2886 238.0801
v  253.2363 6.2886 234.1374
v  251.7204 6.2886 228.9358
v  247.0308 6.2886 227.9075
v  242.1992 7.4184 229.7535
v  242.1992 6.2886 229.7535
v  242.4257 6.9980 234.5352
v  241.5778 6.2886 234.5352
v  248.8761 7.1856 237.0476
# 26 vertices

vn -0.1019 0.9938 -0.0446
vn 0.0622 0.9801 0.1884
vn 0.0398 0.9824 0.1823
vn 0.1751 0.9845 -0.0112
vn 0.0506 0.9802 0.1915
vn 0.0454 0.9886 0.1437
vn -0.9895 0.1434 -0.0165
vn -0.9972 0.0000 0.0750
vn -0.9964 0.0822 0.0228
vn -0.9724 0.2230 -0.0683
vn 0.2697 0.9352 -0.2295
vn 0.1724 0.9835 0.0546
vn 0.3397 0.9005 -0.2714
vn -0.1436 0.0289 0.9892
vn -0.0236 0.2869 0.9577
vn -0.0075 0.2311 0.9729
vn -0.1464 0.0233 0.9889
vn 0.0992 0.9682 -0.2299
vn -0.3720 0.3282 0.8683
vn -0.3738 0.3779 0.8470
vn 0.8278 0.2531 0.5006
vn 0.6552 0.3078 0.6900
vn 0.6524 0.3149 0.6894
vn 0.7627 0.2837 0.5812
vn 0.9403 0.0175 0.3399
vn 0.9418 0.0000 0.3361
vn 0.8776 0.0000 -0.4795
vn 0.4423 0.8537 -0.2747
vn 0.5363 0.8294 -0.1563
vn 0.0107 0.5190 -0.8547
vn -0.0276 0.5188 -0.8545
vn 0.1842 0.5101 -0.8402
vn -0.2010 0.5084 -0.8373
vn -0.3569 0.0000 -0.9341
vn -0.9989 0.0000 0.0473
vn -0.6417 0.7669 0.0075
vn -0.5904 0.8060 0.0422
vn -0.6395 0.7643 -0.0831
vn -0.6610 0.7258 0.1904
vn -0.7652 0.0000 0.6438
vn -0.2564 0.9646 -0.0615
vn -0.6281 0.7762 0.0554
vn 0.0341 0.9968 0.0723
vn 0.0632 0.9846 0.1633
vn 0.0576 0.9965 0.0607
vn 0.0653 0.9913 0.1142
# 46 vertex normals

vt 0.6185 0.7922 0.0000
vt 0.2701 0.3460 0.0000
vt 0.5332 0.2972 0.0000
vt 0.8477 0.7152 0.0000
vt 0.0000 0.0000 0.0000
vt 0.1550 0.0000 0.0000
vt 0.9313 0.8159 0.0000
vt 1.0000 0.6640 0.0000
vt 1.0000 1.0000 0.0000
vt 0.5243 0.0000 0.0000
vt 0.8480 1.0000 0.0000
vt 1.0000 0.0000 0.0000
vt 1.0000 0.2000 0.0000
vt 0.0000 1.0000 0.0000
vt 0.0000 0.5090 0.0000
vt 0.6856 0.2252 0.0000
# 16 texture coords

o Ice_5
g Ice_5
f 1/1/1 2/2/2 3/3/3 
f 4/4/4 1/1/1 3/3/3 
f 5/5/5 6/6/6 3/3/3 
f 6/6/7 5/5/8 7/5/9 
f 8/6/10 6/6/7 7/5/9 
f 9/7/11 10/8/12 11/9/13 
f 12/10/14 6/6/15 8/6/16 
f 13/10/17 12/10/14 8/6/16 
f 9/7/11 11/9/13 14/11/18 
f 15/12/19 12/10/14 13/10/17 
f 16/12/20 15/12/19 13/10/17 
f 17/13/21 15/12/22 16/12/23 
f 18/13/24 17/13/21 16/12/23 
f 10/8/25 17/13/21 18/13/24 
f 19/8/26 10/8/25 18/13/24 
f 11/9/27 10/8/27 19/8/27 
f 20/9/28 11/9/13 19/8/29 
f 14/11/18 11/9/13 20/9/28 
f 21/11/30 14/11/31 20/9/32 
f 22/14/33 14/11/31 21/11/30 
f 23/14/34 22/14/34 21/11/34 
f 24/15/35 22/14/35 23/14/35 
f 25/15/36 24/15/37 23/14/38 
f 5/5/39 24/15/37 25/15/36 
f 7/5/40 5/5/40 25/15/40 
f 1/1/1 14/11/18 22/14/41 
f 2/2/42 24/15/37 5/5/39 
f 9/7/11 4/4/4 10/8/12 
f 6/6/6 12/10/43 26/16/44 
f 3/3/3 6/6/6 26/16/44 
f 14/11/18 1/1/1 4/4/4 
f 9/7/11 14/11/18 4/4/4 
f 12/10/43 15/12/45 17/13/46 
f 26/16/44 12/10/43 17/13/46 
f 1/1/1 22/14/41 24/15/37 
f 2/2/42 1/1/1 24/15/37 
f 4/4/4 3/3/3 26/16/44 
f 10/8/12 4/4/4 26/16/44 
f 26/16/44 17/13/46 10/8/12 
f 3/3/3 2/2/2 5/5/5 
# 40 faces

