# 3ds Max Wavefront OBJ Exporter v0.97b - (c)2007 guruware
# File Created: 20.10.2018 07:45:51

#
# object Ice_6
#

v  262.5823 7.4714 214.5545
v  263.0677 7.3834 215.2081
v  264.9830 7.9394 213.6937
v  262.1364 7.9394 212.8909
v  260.4662 6.8925 216.5952
v  259.1323 6.8923 214.9885
v  258.8304 6.4266 215.2502
v  260.2981 6.4266 217.1669
v  261.6676 7.0380 216.3133
v  263.6499 6.9109 216.8983
v  261.6676 6.4266 216.3133
v  263.4377 7.4721 211.8105
v  263.6499 6.4266 216.8983
v  265.4077 7.4721 215.4357
v  265.9368 6.4266 215.4357
v  265.3218 6.4266 213.4288
v  263.5973 6.4266 211.1302
v  262.4850 7.4721 210.7352
v  262.4850 6.4266 210.2797
v  260.2008 7.2359 212.7225
v  260.2008 6.4266 212.7225
v  258.8077 6.9348 213.4568
v  258.8077 6.4266 213.4568
# 23 vertices

vn -0.1045 0.9656 0.2381
vn -0.0714 0.9675 0.2426
vn -0.0765 0.9600 0.2692
vn -0.2198 0.9737 0.0592
vn -0.5572 0.7092 0.4320
vn -0.5841 0.6510 0.4848
vn -0.5783 0.6646 0.4731
vn -0.5524 0.7183 0.4230
vn -0.0433 0.9597 0.2776
vn -0.0442 0.9581 0.2831
vn -0.0371 0.9107 0.4113
vn 0.0577 0.7655 0.6408
vn 0.5290 0.0000 0.8486
vn 0.1335 0.9581 -0.2536
vn 0.0863 0.9481 -0.3061
vn 0.1439 0.9596 -0.2418
vn -0.2830 0.0000 0.9591
vn 0.5353 0.2350 0.8113
vn 0.6396 0.0000 0.7687
vn 0.6113 0.0745 0.7879
vn 0.5198 0.2631 0.8128
vn 0.8405 0.3056 -0.4473
vn 0.8881 0.4494 -0.0960
vn 0.9133 0.3629 -0.1849
vn 0.8323 0.2988 -0.4669
vn 0.6938 0.4328 -0.5755
vn 0.6623 0.4340 -0.6107
vn 0.6160 0.3987 -0.6794
vn 0.5740 0.3271 -0.7507
vn -0.6117 0.0339 -0.7903
vn -0.6427 0.3060 -0.7023
vn -0.6640 0.2514 -0.7042
vn -0.6068 0.0000 -0.7949
vn -0.4663 0.0000 -0.8846
vn -0.9783 0.0000 0.2073
vn -0.8363 0.5481 0.0106
vn -0.3116 0.9170 -0.2492
vn -0.3055 0.9504 -0.0588
vn -0.1780 0.9819 0.0650
vn -0.1904 0.9751 0.1141
vn -0.0635 0.9581 0.2793
vn 0.1994 0.9639 -0.1767
# 42 vertex normals

vt 0.5392 0.3019 0.0000
vt 0.7065 0.2544 0.0000
vt 1.0000 0.6640 0.0000
vt 0.6185 0.7922 0.0000
vt 0.1550 0.0000 0.0000
vt 0.0000 0.0000 0.0000
vt 0.5243 0.0000 0.0000
vt 1.0000 0.0000 0.0000
vt 1.0000 1.0000 0.0000
vt 1.0000 0.2000 0.0000
vt 0.8480 1.0000 0.0000
vt 0.0000 1.0000 0.0000
vt 0.0000 0.5090 0.0000
# 13 texture coords

o Ice_6
g Ice_6
f 1/1/1 2/2/2 3/3/3 
f 4/4/4 1/1/1 3/3/3 
f 5/5/5 6/6/6 7/6/7 
f 8/5/8 5/5/5 7/6/7 
f 2/2/2 9/7/9 10/8/10 
f 9/7/9 5/5/11 8/5/12 
f 11/7/13 9/7/13 8/5/13 
f 4/4/14 3/3/15 12/9/16 
f 10/8/17 9/7/17 11/7/17 
f 13/8/17 10/8/17 11/7/17 
f 14/10/18 10/8/19 13/8/20 
f 15/10/21 14/10/18 13/8/20 
f 3/3/22 14/10/23 15/10/24 
f 16/3/25 3/3/22 15/10/24 
f 12/9/26 3/3/22 16/3/25 
f 17/9/27 12/9/26 16/3/25 
f 18/11/28 12/9/26 17/9/27 
f 19/11/29 18/11/28 17/9/27 
f 20/12/30 18/11/31 19/11/32 
f 21/12/33 20/12/30 19/11/32 
f 22/13/34 20/12/30 21/12/33 
f 23/13/34 22/13/34 21/12/33 
f 6/6/35 22/13/35 23/13/35 
f 7/6/36 6/6/36 23/13/36 
f 4/4/4 18/11/37 20/12/38 
f 20/12/38 22/13/39 6/6/40 
f 4/4/4 20/12/38 6/6/40 
f 5/5/11 9/7/9 2/2/2 
f 1/1/1 5/5/11 2/2/2 
f 6/6/40 5/5/11 1/1/1 
f 4/4/4 6/6/40 1/1/1 
f 14/10/41 3/3/3 2/2/2 
f 10/8/10 14/10/41 2/2/2 
f 12/9/16 18/11/42 4/4/14 
# 34 faces

